# xmcd
#
# Track frame offsets:
# 150
# 12022
# 23425
# 42685
# 55225
# 72707
# 84682
# 100640
# 112670
# 128185
# 140317
# 159732
#
# Disc length: 2280 seconds
#
#
# Revision: 0
# Processed by: cddbd v1.5.2PL0 Copyright (c) Steve Scherf et al.
# Submitted via: FreeRIP 2.96 
#
DISCID=9808e60c
DTITLE=Deaton, Honi and Dream - Promise To A Soldier
DYEAR=2005
DGENRE=Bluegrass
TTITLE0=River Of Tears
TTITLE1=Walking After Midnight
TTITLE2=Send me the Pillow that you Dream On
TTITLE3=Cowboy Sweetheart
TTITLE4=All Alone
TTITLE5=I'm Callin' Jesus
TTITLE6=It Amazes Me
TTITLE7=Glory, Glory
TTITLE8=Promise To A Soldier
TTITLE9=I'm Gonna Build On That Shore
TTITLE10=Am I Losing You
TTITLE11=Here I Am Lord
EXTD=
EXTT0=
EXTT1=
EXTT2=
EXTT3=
EXTT4=
EXTT5=
EXTT6=
EXTT7=
EXTT8=
EXTT9=
EXTT10=
EXTT11=
PLAYORDER=
